:FULLY-SPECIFIED
:FORCE-ALL-JOINTS-BE-3DOF
:DEGREES
1631
root -14.988 14.5898 19.3872 -21.2959 -71.17 21.6042
lfemur 16.7493 -10.4589 -13.7505
ltibia 20.8438 -0 0
lfoot -20.9719 29.2689 -0.00371828
ltoes -45.2708 0 0
rfemur -52.5765 -15.349 7.54337
rtibia 67.2813 -0 0
rfoot -10.9434 10.4714 0.00119825
rtoes 6.85182 -0 0
lowerback 12.7767 4.39289 -8.37303
upperback -0.298363 4.48074 -0.74303
thorax -8.09877 2.47798 3.01351
lowerneck 0.67644 -12.1964 -12.3307
upperneck 4.57538 -16.6868 9.00797
head 3.0175 -8.37279 3.96356
lclavicle 8.51295e-14 -2.26615e-14 0
lhumerus -71.9877 -16.6938 104.283
lradius 103.861 -0 0
lwrist 54.3626 0 0
lhand -11.6542 49.7863 0.0170406
lfingers 7.12502 -0 0
lthumb 14.3885 79.2098 0.0163423
rclavicle 8.51295e-14 -2.26615e-14 0
rhumerus 47.5236 -3.84572 -56.5019
rradius 18.3054 -0 0
rwrist 26.6596 0 0
rhand -19.4074 -35.0754 0.0401664
rfingers 7.12502 -0 0
rthumb 6.9126 -64.9595 0.0356566
1632
root -15.0003 14.5881 19.3928 -21.0728 -71.1472 21.3022
lfemur 16.6966 -10.522 -13.6865
ltibia 20.9984 -0 0
lfoot -21.0132 29.3141 -0.00306625
ltoes -45.1926 0 0
rfemur -52.4495 -15.3663 7.5653
rtibia 67.1809 -0 0
rfoot -10.931 10.5014 0.00133482
rtoes 6.84362 -0 0
lowerback 12.7926 4.37345 -8.32095
upperback -0.307817 4.46358 -0.715899
thorax -8.11419 2.46923 3.0163
lowerneck 0.677119 -12.2365 -12.3208
upperneck 4.56278 -16.7428 9.03628
head 3.02121 -8.39983 3.96612
lclavicle 8.51295e-14 -2.26615e-14 0
lhumerus -72.0476 -16.6209 104.253
lradius 103.917 -0 0
lwrist 54.4209 0 0
lhand -12.0635 49.7243 0.0283492
lfingers 7.12502 -0 0
lthumb 13.9929 79.1636 0.0214745
rclavicle 8.51295e-14 -2.26615e-14 0
rhumerus 47.4846 -3.90974 -56.6533
rradius 18.2217 -0 0
rwrist 26.7533 0 0
rhand -19.3758 -34.9976 0.0409309
rfingers 7.12502 -0 0
rthumb 6.94312 -64.8809 0.0363735
1633
root -15.0127 14.5864 19.3983 -20.786 -71.1382 20.945
lfemur 16.5344 -10.6116 -13.6196
ltibia 21.3392 -0 0
lfoot -21.0538 29.359 -0.00238607
ltoes -45.084 0 0
rfemur -52.3384 -15.3566 7.58895
rtibia 67.0638 -0 0
rfoot -10.9021 10.5283 0.00137034
rtoes 6.75447 -0 0
lowerback 12.8112 4.35065 -8.25345
upperback -0.317464 4.44456 -0.683459
thorax -8.13032 2.45912 3.01644
lowerneck 0.694001 -12.2908 -12.319
upperneck 4.52109 -16.8199 9.08854
head 3.01921 -8.43738 3.97748
lclavicle 8.51295e-14 -2.26615e-14 0
lhumerus -72.0978 -16.5746 104.228
lradius 103.974 -0 0
lwrist 54.4809 0 0
lhand -12.4967 49.6321 0.0391153
lfingers 7.12502 -0 0
lthumb 13.5744 79.0901 0.0264804
rclavicle 8.51295e-14 -2.26615e-14 0
rhumerus 47.4343 -3.96292 -56.7635
rradius 18.1744 -0 0
rwrist 26.7176 0 0
rhand -19.308 -34.9387 0.0403131
rfingers 7.12502 -0 0
rthumb 7.00858 -64.8193 0.0358709
1634
root -15.025 14.5848 19.4038 -20.4305 -71.1461 20.5333
lfemur 16.2531 -10.7301 -13.5515
ltibia 21.8804 -0 0
lfoot -21.0918 29.4047 -0.00171526
ltoes -44.9409 0 0
rfemur -52.2505 -15.3171 7.61435
rtibia 66.9334 -0 0
rfoot -10.86 10.5518 0.00130834
rtoes 6.57545 -0 0
lowerback 12.8312 4.32445 -8.16956
upperback -0.327662 4.42397 -0.645144
thorax -8.14686 2.44779 3.01397
lowerneck 0.730248 -12.3609 -12.3267
upperneck 4.44562 -16.9205 9.16735
head 3.01029 -8.48664 3.9988
lclavicle 8.51295e-14 -2.26615e-14 0
lhumerus -72.1363 -16.5614 104.21
lradius 104.028 -0 0
lwrist 54.5401 0 0
lhand -12.972 49.5018 0.0481614
lfingers 7.12502 -0 0
lthumb 13.1155 78.9834 0.0307497
rclavicle 8.51295e-14 -2.26615e-14 0
rhumerus 47.3729 -4.00114 -56.8234
rradius 18.1701 -0 0
rwrist 26.5349 0 0
rhand -19.1987 -34.9003 0.0381091
rfingers 7.12502 -0 0
rthumb 7.11404 -64.7762 0.0339623
